<?xml version="1.0" encoding="utf-8"?>
<!-- Generator: Adobe Illustrator 16.0.0, SVG Export Plug-In . SVG Version: 6.00 Build 0)  -->
<!DOCTYPE svg PUBLIC "-//W3C//DTD SVG 1.1//EN" "http://www.w3.org/Graphics/SVG/1.1/DTD/svg11.dtd">
<svg version="1.1" id="Layer_1" xmlns="http://www.w3.org/2000/svg" xmlns:xlink="http://www.w3.org/1999/xlink" x="0px" y="0px"
	 width="44px" height="28px" viewBox="0 0 44 28" enable-background="new 0 0 44 28" xml:space="preserve">
<path opacity="0.2" fill-rule="evenodd" clip-rule="evenodd" fill="#FFFFFF" d="M28.537,14.332l8.598-14.1
	c0.41,0.229,0.732,0.614,0.863,1.101l5.941,22.133c0.123,0.459,0.051,0.924-0.16,1.315L28.537,14.332z M0.306,10.083
	c0.24-0.365,0.606-0.65,1.064-0.773L35.75,0.063c0.457-0.123,0.918-0.06,1.309,0.135l-14.589,19.05L0.306,10.083z M6.801,34.725
	c-0.379-0.232-0.674-0.597-0.798-1.057L0.062,11.535c-0.131-0.486-0.046-0.981,0.196-1.385l14.501,7.887L6.801,34.725z
	 M23.408,22.742l3.59-5.887l16.723,8.027c-0.238,0.382-0.617,0.681-1.09,0.81L8.251,34.937c-0.474,0.127-0.95,0.058-1.349-0.152
	l10.451-15.335L23.408,22.742z"/>
</svg>
