<?xml version="1.0" encoding="utf-8"?>
<!-- Generator: Adobe Illustrator 21.0.2, SVG Export Plug-In . SVG Version: 6.00 Build 0)  -->
<svg version="1.1" id="Layer_1" xmlns="http://www.w3.org/2000/svg" xmlns:xlink="http://www.w3.org/1999/xlink" x="0px" y="0px"
	 viewBox="0 0 107.9 117.9" enable-background="new 0 0 107.9 117.9" xml:space="preserve">
<g>
	<defs>
		<path id="SVGID_1_" d="M94,62.1c0,14.1-7.7,26.4-19.2,32.9c0,0.5,0,0.9,0.1,1.4C87.3,90.5,96,77.9,96,63.2
			c0-12.2-5.9-23-15.1-29.6C88.9,40.5,94,50.7,94,62.1"/>
	</defs>
	<use xlink:href="#SVGID_1_"  overflow="visible" fill="#1E417C"/>
	<clipPath id="SVGID_2_">
		<use xlink:href="#SVGID_1_"  overflow="visible"/>
	</clipPath>
	<rect x="74.8" y="33.5" clip-path="url(#SVGID_2_)" fill="#1E417C" width="21.2" height="62.9"/>
</g>
<g>
	<defs>
		<path id="SVGID_3_" d="M47.2,20.1v82.6c-1-0.1-1.7-0.2-2.1-0.3V53.9L32,40.2v8.1l11.6,13v3L32,51.3v5.3l11.6,13v3.1L32,59.7v38
			c-13.1-7-22-19.9-22-34.8c0-19.3,14.7-35.3,34.5-39.3v-3.5C18.9,24.2,0,44.3,0,68.6c0,27.2,24.2,49.2,54,49.2
			c29.8,0,53.9-22,53.9-49.2c0-21.5-15.2-39.7-36.2-46.5V25c0,0.3,0.1,0.7,0,1C87.2,32.3,98,46.4,98,62.9c0,14.3-7.8,26.9-20.5,34
			V44.2L63,29.8v72.2c-1.7,0.3-1.2,0.5-2.1,0.6V-0.2L47.2,20.1z"/>
	</defs>
	<use xlink:href="#SVGID_3_"  overflow="visible" fill="#1E417C"/>
	<clipPath id="SVGID_4_">
		<use xlink:href="#SVGID_3_"  overflow="visible"/>
	</clipPath>
	<rect y="-0.2" clip-path="url(#SVGID_4_)" fill="#1E417C" width="107.9" height="118"/>
</g>
<polygon fill="#1E417C" points="61.7,16.7 68.3,23.6 68.3,16.1 61.7,8.6 "/>
<polygon fill="#1E417C" points="61.7,26.1 68.3,33 68.3,25.5 61.7,18.1 "/>
<polygon fill="#1E417C" points="68.4,14.4 68.4,7.5 61.7,0 61.7,6.9 "/>
<polygon fill="#1E417C" points="61.6,7.5 61.6,8.2 61.7,8.4 61.7,7.7 "/>
</svg>
