<?xml version="1.0" encoding="utf-8"?>
<!-- Generator: Adobe Illustrator 16.0.0, SVG Export Plug-In . SVG Version: 6.00 Build 0)  -->
<!DOCTYPE svg PUBLIC "-//W3C//DTD SVG 1.1//EN" "http://www.w3.org/Graphics/SVG/1.1/DTD/svg11.dtd">
<svg version="1.1" id="Layer_1" xmlns="http://www.w3.org/2000/svg" xmlns:xlink="http://www.w3.org/1999/xlink" x="0px" y="0px"
	 width="31px" height="32px" viewBox="0 0 31 32" enable-background="new 0 0 31 32" xml:space="preserve">
<g opacity="0.2">
	<g>
		<path fill-rule="evenodd" clip-rule="evenodd" fill="#FFFFFF" d="M11.27,23.11c0.797,0.709,1.594,1.417,2.383,2.134
			c0.593,0.533,0.703,0.561,1.535,0.018c1.152-0.763,2.314-1.525,3.467-2.289c0.449-0.285,0.492-0.423,0.229-1.002
			c-1-2.188-2.01-4.366-2.951-6.592c-0.347-0.828-0.414-0.911-1.211-0.681c-0.992,0.294-1.985,0.58-2.985,0.875
			c-0.949,0.274-1.026,0.44-1.026,1.462c0,1.498,0,2.996,0,4.495C10.709,22.458,10.761,22.65,11.27,23.11z M29.762,15.498
			c-0.975-0.286-1.948-0.57-2.916-0.854c-0.577-0.166-0.619-0.12-0.874,0.487c-0.745,1.783-1.543,3.54-2.349,5.295
			c-0.34,0.745-0.296,0.771,0.535,0.698c2.034-0.184,4.079-0.367,6.122-0.562c0.704-0.063,0.72-0.119,0.72-0.762
			c0-0.883,0-1.756,0-2.629C31,16.013,30.907,15.839,29.762,15.498z M8.514,15.554c-1.061-0.313-2.128-0.625-3.189-0.938
			c-0.872-0.248-0.881-0.165-0.287,0.625c1.288,1.72,2.577,3.439,3.865,5.159c0.587,0.781,0.68,0.863,0.68-0.285
			c0-1.029,0-2.068,0-3.1C9.582,16.004,9.522,15.839,8.514,15.554z M0.983,22.798c1.865-0.716,3.739-1.425,5.605-2.141
			c0.831-0.322,0.881-0.414,0.203-1.307c-1.204-1.581-2.407-3.163-3.612-4.735c-0.551-0.726-0.646-0.809-1.483-1.057
			c-0.264-0.074-0.518-0.147-0.78-0.231C0.05,13.079,0,13.172,0,14.294c0,2.647,0,5.294,0,7.943C0,23.019,0.05,23.147,0.983,22.798z
			 M8.708,21.86c-0.356-0.459-0.458-0.496-1.349-0.165c-2.221,0.827-4.443,1.646-6.655,2.474C0.034,24.417,0,24.51,0,25.4
			c0,2.005,0,4.017,0,6.02c0,0.921,0.017,0.957,0.84,0.645c2.662-1.012,5.316-2.032,7.979-3.042
			c0.721-0.275,0.764-0.331,0.764-1.223c0-1.307,0-2.602,0-3.897c0-0.848-0.043-0.948-0.468-1.509
			C8.979,22.22,8.844,22.045,8.708,21.86z M8.606,32.247c-2.578,0.984-5.146,1.96-7.716,2.943C0.093,35.493,0,35.576,0,36.459
			c0,0.524,0,1.039,0,1.554c0,0.929,0.076,1.075,0.84,1.094c2.585,0.074,5.164,0.138,7.75,0.202
			c0.907,0.028,0.992-0.037,0.992-1.048c0-1.765,0-3.521,0-5.286C9.582,31.973,9.548,31.89,8.606,32.247z M8.683,40.613
			c-2.29-0.063-4.587-0.128-6.885-0.191c-1.595-0.047-1.629,0.008-0.102,0.449c2.271,0.663,4.554,1.344,6.834,2.005
			c0.864,0.248,1.052,0.211,1.052-0.91c0-0.174,0-0.34,0-0.515C9.582,40.716,9.489,40.632,8.683,40.613z M30.391,29.904
			c-1.849-1.663-3.706-3.328-5.555-4.991c-0.644-0.58-0.848-0.662-1.653-0.57c-0.255,0.028-0.518,0.055-0.779,0.074
			c-0.874,0.1-0.983,0.166-0.983,0.845c0,2.226,0,4.448,0,6.675c0,1.011,0.119,1.093,0.94,1.002
			c2.587-0.276,5.182-0.544,7.774-0.818C30.865,32.037,31,31.954,31,31.173C31,30.585,30.89,30.354,30.391,29.904z M30.203,33.406
			c-2.671,0.285-5.333,0.562-7.996,0.847c-0.729,0.074-0.787,0.174-0.787,1.203c0,1.167,0,2.336,0,3.504
			c0,1.24,0.178,1.47,1.126,1.746c2.469,0.727,4.936,1.453,7.403,2.17C30.873,43.143,31,42.977,31,41.709c0-2.474,0-4.956,0-7.428
			C31,33.397,30.975,33.324,30.203,33.406z M30.288,23.589c-1.221,0.13-2.434,0.257-3.654,0.387
			c-0.755,0.083-0.831,0.138-0.246,0.652c1.332,1.204,2.663,2.399,3.993,3.595C30.882,28.673,31,28.737,31,27.938
			c0-1.187,0-2.372,0-3.558C31,23.636,30.975,23.516,30.288,23.589z M11.371,27.781c0.432-0.294,0.864-0.58,1.297-0.864
			c0.535-0.35,0.552-0.388,0-0.882c-0.416-0.378-0.839-0.754-1.263-1.131c-0.61-0.552-0.696-0.487-0.696,0.33
			c0,0.606,0,1.214,0,1.83C10.709,28.121,10.752,28.186,11.371,27.781z M19.358,25.639c-2.603,1.711-5.206,3.429-7.809,5.14
			c-0.823,0.541-0.841,0.597-0.841,1.543c0,1.83,0,3.669,0,5.508c0,1.121,0.043,1.168,0.848,0.688
			c2.57-1.489,5.131-2.988,7.699-4.484c0.977-0.563,1.035-0.627,1.035-1.712c0-2.068,0-4.126,0-6.187
			C20.291,25.106,20.257,25.051,19.358,25.639z M19.527,35.219c-2.654,1.534-5.308,3.061-7.953,4.586
			c-0.755,0.433-0.865,0.579-0.865,1.289c0,0.274,0,0.541,0,0.809c0,1.038,0.17,1.23,1.188,0.938c2.39-0.7,4.772-1.397,7.164-2.098
			c1.034-0.303,1.229-0.579,1.229-1.875c0-0.983,0-1.967,0-2.951C20.291,34.842,20.267,34.795,19.527,35.219z M27.211,6.84
			c0-3.779-2.823-6.84-6.31-6.84c-3.484,0-6.309,3.061-6.309,6.84c0,3.298,3.925,11.417,5.688,15.296
			c0.604,1.307,0.638,1.315,1.214,0.057C23.25,18.34,27.211,10.158,27.211,6.84z M20.901,11.362c-2.306,0-4.173-2.022-4.173-4.522
			c0-2.501,1.867-4.524,4.173-4.524c2.307,0,4.173,2.023,4.173,4.524C25.074,9.339,23.208,11.362,20.901,11.362z"/>
	</g>
</g>
</svg>
