<?xml version="1.0" encoding="utf-8"?>
<!-- Generator: Adobe Illustrator 16.0.0, SVG Export Plug-In . SVG Version: 6.00 Build 0)  -->
<!DOCTYPE svg PUBLIC "-//W3C//DTD SVG 1.1//EN" "http://www.w3.org/Graphics/SVG/1.1/DTD/svg11.dtd">
<svg version="1.1" id="Layer_1" xmlns="http://www.w3.org/2000/svg" xmlns:xlink="http://www.w3.org/1999/xlink" x="0px" y="0px"
	 width="33px" height="28px" viewBox="0 0 33 28" enable-background="new 0 0 33 28" xml:space="preserve">
<path opacity="0.2" fill="#FFFFFF" d="M32.342,25.322l-5.77-5.596c-0.877-0.85-2.303-0.85-3.182,0l-1.592,1.545
	c-0.795,0.771-0.795,2.314-0.795,2.314c-2.385,0.771-6.161-2.891-7.753-4.436c-1.589-1.541-5.363-5.203-4.567-7.517
	c0,0,1.591,0,2.385-0.772l1.591-1.543c0.877-0.851,0.877-2.232,0-3.084L6.889,0.638c-0.878-0.851-2.304-0.851-3.183,0l-1.59,1.544
	c-3.182,3.085-3.978,11.569,6.363,21.597c10.34,10.027,19.092,9.256,22.271,6.17l1.592-1.541
	C33.219,27.557,33.219,26.174,32.342,25.322z"/>
</svg>
