<?xml version="1.0" encoding="utf-8"?>
<!-- Generator: Adobe Illustrator 16.0.0, SVG Export Plug-In . SVG Version: 6.00 Build 0)  -->
<!DOCTYPE svg PUBLIC "-//W3C//DTD SVG 1.1//EN" "http://www.w3.org/Graphics/SVG/1.1/DTD/svg11.dtd">
<svg version="1.1" id="Layer_1" xmlns="http://www.w3.org/2000/svg" xmlns:xlink="http://www.w3.org/1999/xlink" x="0px" y="0px"
	 width="35px" height="28px" viewBox="0 0 35 28" enable-background="new 0 0 35 28" xml:space="preserve">
<path opacity="0.2" fill-rule="evenodd" clip-rule="evenodd" fill="#FFFFFF" d="M17.5,0C7.835,0,0,8.06,0,18.004
	C0,27.938,7.835,36,17.5,36C27.164,36,35,27.938,35,18.004C35,8.06,27.164,0,17.5,0z M6.73,28.955
	c-2.635-2.734-4.289-6.473-4.376-10.607c-0.008-0.441,0.438-0.736,0.819-0.549c0.691,0.344,1.384,0.689,2.068,1.031
	c0.636,0.313,0.659,0.377,0.453,1c-0.223,0.646-0.446,1.293-0.66,1.939c-0.239,0.695-0.223,0.818,0.159,1.414
	c0.453,0.721,0.907,1.432,1.368,2.152c0.484,0.771,0.532,0.943,0.779,1.834l0.342,1.211C7.851,28.963,7.144,29.389,6.73,28.955z
	 M17.5,33.586c-2.562,0-4.98-0.654-7.096-1.816c-0.279-0.146-0.382-0.492-0.247-0.777c1.258-2.635,2.515-5.271,3.771-7.914
	c0.263-0.557,0.27-0.623-0.24-0.982c-1.868-1.318-3.737-2.637-5.606-3.962c-0.574-0.407-0.708-0.384-1.281,0
	c-0.55,0.37-0.613,0.37-0.875-0.204c-0.303-0.662-0.604-1.326-0.907-1.979c-0.197-0.435-0.278-0.5-0.851-0.254
	c-0.151,0.065-0.294,0.131-0.445,0.188c-0.485,0.213-0.533,0.195-0.358-0.476c0.128-0.491,0.255-0.982,0.382-1.472
	c0.137-0.525,0.174-0.532,0.604-0.321c0.406,0.197,0.813,0.394,1.217,0.59c0.541,0.27,0.598,0.264,0.971-0.114
	c1.734-1.751,3.46-3.512,5.195-5.271c0.477-0.491,0.492-0.555,0.182-1.08c-0.389-0.663-0.779-1.318-1.177-1.979
	C10.523,5.384,10.419,5.36,9.982,5.81c-0.207,0.205-0.413,0.417-0.62,0.622C8.964,6.85,8.909,6.866,8.472,6.546l-0.064-0.05
	C8.089,6.269,8.082,5.786,8.392,5.548c1.051-0.818,2.203-1.489,3.437-2.005c0.302-0.123,0.637,0.023,0.748,0.335l0.596,1.563
	c0.279,0.736,0.367,0.834,1.162,0.335c1.631-1.023,3.261-2.039,4.885-3.061c0.167-0.106,0.271-0.173,0.477-0.141
	c1.249,0.189,2.442,0.533,3.572,1.008c0.286,0.122,0.43,0.457,0.317,0.752c-0.263,0.712-0.525,1.416-0.787,2.121
	c-0.167,0.449-0.206,0.547-0.485,0.931c-0.382,0.541-0.756,1.081-1.138,1.621c-0.223,0.311-0.294,0.352-0.612,0.434
	c-0.144,0.033-0.294,0.073-0.445,0.114c-0.406,0.098-0.422,0.139-0.453,0.541c-0.017,0.205-0.04,0.41-0.057,0.615
	c-0.031,0.399-0.008,0.417,0.398,0.499c0.167,0.025,0.327,0.058,0.492,0.09c0.479,0.09,0.525,0.081,0.9-0.261
	c0.468-0.435,0.938-0.868,1.415-1.302c0.278-0.262,0.327-0.278,0.764-0.066c0.548,0.263,1.098,0.524,1.655,0.793
	c0.334,0.164,0.421,0.221,0.628,0.524c0.365,0.516,0.724,1.022,1.081,1.539c0.215,0.303,0.136,0.334-0.23,0.327
	c-0.596-0.016-1.185-0.024-1.782-0.041c-0.301,0-0.396-0.057-0.628-0.311c-0.285-0.319-0.572-0.63-0.851-0.949
	c-0.191-0.205-0.278-0.254-0.685-0.147c-0.859,0.229-1.718,0.466-2.585,0.696c-0.445,0.122-0.509,0.189-0.731,0.622
	c-0.573,1.088-1.146,2.177-1.719,3.265c-0.271,0.533-0.263,0.59-0.056,1.098c0.302,0.744,0.612,1.488,0.916,2.234
	c0.197,0.49,0.229,0.523,0.81,0.516c0.844-0.008,1.687-0.025,2.53-0.033c0.54-0.008,0.612,0.057,0.685,0.639
	c0.397,3.002,0.787,6.016,1.185,9.025c0.112,0.859,0.167,0.877,0.644,0.303c1.051-1.252,2.094-2.496,3.143-3.746
	c0.485-0.59,0.572-0.738,0.867-1.598c0.541-1.637,1.091-3.271,1.64-4.91c0.253-0.777,0.222-0.883-0.422-0.934
	c-0.669-0.049-0.74-0.13-0.971-0.809c-0.326-0.958-0.652-1.906-0.979-2.866c-0.31-0.916-0.295-0.972,0.119-0.229
	c0.406,0.712,0.811,1.424,1.217,2.136c0.461,0.825,0.51,0.858,1.074,0.335c0.596-0.564,1.2-1.129,1.798-1.693
	c0.453-0.424,0.453-0.459-0.191-0.925c-0.262-0.188-0.525-0.384-0.779-0.573c-0.676-0.49-0.732-0.548,0.047-0.245l0.907,0.359
	c0.184,0.074,0.311,0.222,0.35,0.417c0.256,1.13,0.39,2.3,0.39,3.511C32.652,26.605,25.867,33.586,17.5,33.586z"/>
</svg>
