<?xml version="1.0" encoding="utf-8"?>
<!-- Generator: Adobe Illustrator 21.0.2, SVG Export Plug-In . SVG Version: 6.00 Build 0)  -->
<svg version="1.1" id="Isolation_Mode" xmlns="http://www.w3.org/2000/svg" xmlns:xlink="http://www.w3.org/1999/xlink" x="0px"
	 y="0px" viewBox="0 0 329.1 118" style="enable-background:new 0 0 329.1 118;" xml:space="preserve">
<style type="text/css">
	.st0{clip-path:url(#SVGID_2_);fill:url(#SVGID_3_);}
	.st1{clip-path:url(#SVGID_5_);fill:url(#SVGID_6_);}
	.st2{filter:url(#Adobe_OpacityMaskFilter);}
	.st3{enable-background:new    ;}
	.st4{filter:url(#Adobe_OpacityMaskFilter_1_);}
	.st5{clip-path:url(#SVGID_9_);mask:url(#SVGID_7_);fill:url(#SVGID_10_);}
	.st6{clip-path:url(#SVGID_12_);}
	.st7{clip-path:url(#SVGID_14_);fill:url(#SVGID_15_);}
	.st8{fill:#27A5DE;}
	.st9{fill:#FFFFFF;}
	.st10{fill:url(#SVGID_16_);}
	.st11{fill:url(#SVGID_17_);}
	.st12{fill:url(#SVGID_18_);}
	.st13{fill:url(#SVGID_19_);}
	.st14{fill:url(#SVGID_20_);}
	.st15{fill:url(#SVGID_21_);}
	.st16{fill:url(#SVGID_22_);}
	.st17{fill:url(#SVGID_23_);}
	.st18{fill:url(#SVGID_24_);}
	.st19{fill:url(#SVGID_25_);}
	.st20{fill:url(#SVGID_26_);}
	.st21{fill:url(#SVGID_27_);}
	.st22{fill:url(#SVGID_28_);}
	.st23{clip-path:url(#SVGID_31_);fill:url(#SVGID_32_);}
	.st24{fill:url(#SVGID_33_);}
	.st25{clip-path:url(#SVGID_35_);fill:url(#SVGID_36_);}
	.st26{clip-path:url(#SVGID_38_);fill:url(#SVGID_39_);}
	.st27{clip-path:url(#SVGID_41_);fill:url(#SVGID_42_);}
	.st28{clip-path:url(#SVGID_44_);fill:url(#SVGID_45_);}
	.st29{clip-path:url(#SVGID_47_);fill:url(#SVGID_48_);}
	.st30{clip-path:url(#SVGID_50_);fill:url(#SVGID_51_);}
	.st31{clip-path:url(#SVGID_53_);fill:url(#SVGID_54_);}
	.st32{clip-path:url(#SVGID_56_);fill:url(#SVGID_57_);}
	.st33{clip-path:url(#SVGID_59_);fill:url(#SVGID_60_);}
	.st34{clip-path:url(#SVGID_62_);fill:url(#SVGID_63_);}
</style>
<g>
	<defs>
		<path id="SVGID_1_" d="M94,62.3c0,14.1-7.7,26.4-19.2,32.9c0,0.5,0,0.9,0.1,1.4C87.3,90.7,96,78.1,96,63.4
			c0-12.2-5.9-23-15.1-29.6C88.9,40.7,94,50.9,94,62.3"/>
	</defs>
	<clipPath id="SVGID_2_">
		<use xlink:href="#SVGID_1_"  style="overflow:visible;"/>
	</clipPath>
	
		<radialGradient id="SVGID_3_" cx="-75.0321" cy="259.601" r="0.9997" gradientTransform="matrix(28.212 0 0 -28.212 2214.3474 7387.7539)" gradientUnits="userSpaceOnUse">
		<stop  offset="0" style="stop-color:#71CDDD"/>
		<stop  offset="0.6311" style="stop-color:#1072BA"/>
		<stop  offset="1" style="stop-color:#272361"/>
	</radialGradient>
	<rect x="74.8" y="33.7" class="st0" width="21.2" height="62.9"/>
</g>
<g>
	<defs>
		<path id="SVGID_4_" d="M47.2,20.3v82.6c-1-0.1-1.7-0.2-2.1-0.3V54.1L32,40.4v8.1l11.6,13v3L32,51.5v5.3l11.6,13v3.1L32,59.9v38
			c-13.1-7-22-19.9-22-34.8c0-19.3,14.7-35.3,34.5-39.3v-3.5C18.9,24.4,0,44.5,0,68.8C0,95.9,24.2,118,54,118
			c29.8,0,53.9-22,53.9-49.2c0-21.5-15.2-39.7-36.2-46.5v2.9c0,0.3,0.1,0.7,0,1C87.2,32.5,98,46.6,98,63.1c0,14.3-7.8,26.9-20.5,34
			V44.4L63,30v72.2c-1.7,0.3-1.2,0.5-2.1,0.6V0L47.2,20.3z"/>
	</defs>
	<clipPath id="SVGID_5_">
		<use xlink:href="#SVGID_4_"  style="overflow:visible;"/>
	</clipPath>
	
		<radialGradient id="SVGID_6_" cx="-75.0175" cy="259.7923" r="0.9996" gradientTransform="matrix(112.7402 0 0 -112.7402 8511.418 29412.9766)" gradientUnits="userSpaceOnUse">
		<stop  offset="0" style="stop-color:#71CDDD"/>
		<stop  offset="0.6311" style="stop-color:#1072BA"/>
		<stop  offset="1" style="stop-color:#272361"/>
	</radialGradient>
	<rect x="0" class="st1" width="107.9" height="118"/>
</g>
<g>
	<defs>
		<filter id="Adobe_OpacityMaskFilter" filterUnits="userSpaceOnUse" x="-45.7" y="-24.8" width="193.6" height="193.6">
			<feFlood  style="flood-color:white;flood-opacity:1" result="back"/>
			<feBlend  in="SourceGraphic" in2="back" mode="normal"/>
		</filter>
	</defs>
	<mask maskUnits="userSpaceOnUse" x="-45.7" y="-24.8" width="193.6" height="193.6" id="SVGID_7_">
		<g class="st2">
			<g class="st3">
				<g>
					<defs>
						<path id="SVGID_8_" d="M94.5,79.1c-3.5,7.4-9.3,13.7-17,18V59.9c-3.9-3.6-8-7.1-12.1-10.4c-0.8-0.6-1.6-1.2-2.4-1.8v54.6
							c-1.7,0.3-1.2,0.5-2.1,0.6V46.2c-4.5-3.2-9.1-6.2-13.7-9.1v65.8c-1-0.1-1.7-0.2-2.1-0.3V54.1L32,40.4v8.1l11.6,13v3L32,51.5
							v5.3l11.6,13v3.1L32,59.9v38c-13.1-7-22-19.9-22-34.8c0-14.9,8.8-27.8,21.9-34.8c-1.5-0.8-3.1-1.6-4.6-2.4
							C10.8,34.4,0,50.4,0,68.8C0,95.9,24.2,118,54,118c21.1,0,39.4-11.1,48.2-27.2C99.6,86.9,97.1,83,94.5,79.1"/>
					</defs>
					<clipPath id="SVGID_9_">
						<use xlink:href="#SVGID_8_"  style="overflow:visible;"/>
					</clipPath>
					<defs>
						<filter id="Adobe_OpacityMaskFilter_1_" filterUnits="userSpaceOnUse" x="-45.7" y="-24.8" width="193.6" height="193.6">
							<feFlood  style="flood-color:white;flood-opacity:1" result="back"/>
							<feBlend  in="SourceGraphic" in2="back" mode="normal"/>
						</filter>
					</defs>
					<mask maskUnits="userSpaceOnUse" x="-45.7" y="-24.8" width="193.6" height="193.6" id="SVGID_7_">
						<g class="st4">
							<g class="st3">
							</g>
						</g>
					</mask>
					
						<linearGradient id="SVGID_10_" gradientUnits="userSpaceOnUse" x1="-75.0137" y1="259.6163" x2="-74.0136" y2="259.6163" gradientTransform="matrix(-66.5304 59.0459 59.0459 66.5304 -20235.584 -12800.709)">
						<stop  offset="0" style="stop-color:#6D6E71"/>
						<stop  offset="0.4276" style="stop-color:#000000"/>
						<stop  offset="1" style="stop-color:#000000"/>
					</linearGradient>
					<polygon class="st5" points="147.9,77.4 45,168.7 -45.7,66.5 57.2,-24.8 					"/>
				</g>
			</g>
		</g>
	</mask>
	<g>
		<g>
			<defs>
				<rect id="SVGID_11_" y="25.9" width="102.2" height="92.1"/>
			</defs>
			<clipPath id="SVGID_12_">
				<use xlink:href="#SVGID_11_"  style="overflow:visible;"/>
			</clipPath>
			<g class="st6">
				<defs>
					<path id="SVGID_13_" d="M94.5,79.1c-3.5,7.4-9.3,13.7-17,18V59.9c-3.9-3.6-8-7.1-12.1-10.4c-0.8-0.6-1.6-1.2-2.4-1.8v54.6
						c-1.7,0.3-1.2,0.5-2.1,0.6V46.2c-4.5-3.2-9.1-6.2-13.7-9.1v65.8c-1-0.1-1.7-0.2-2.1-0.3V54.1L32,40.4v8.1l11.6,13v3L32,51.5
						v5.3l11.6,13v3L32,59.9v38c-13.1-7-22-19.9-22-34.8c0-14.9,8.8-27.8,21.9-34.8c-1.5-0.8-3.1-1.6-4.6-2.4
						C10.8,34.4,0,50.4,0,68.8C0,95.9,24.2,118,54,118c21.1,0,39.4-11.1,48.2-27.2C99.6,86.9,97.1,83,94.5,79.1"/>
				</defs>
				<clipPath id="SVGID_14_">
					<use xlink:href="#SVGID_13_"  style="overflow:visible;"/>
				</clipPath>
				
					<linearGradient id="SVGID_15_" gradientUnits="userSpaceOnUse" x1="-75.0137" y1="259.6163" x2="-74.0136" y2="259.6163" gradientTransform="matrix(-66.5304 59.0459 59.0459 66.5304 -20235.584 -12800.709)">
					<stop  offset="0" style="stop-color:#FFFFFF"/>
					<stop  offset="0.4276" style="stop-color:#FFFFFF"/>
					<stop  offset="1" style="stop-color:#FFFFFF"/>
				</linearGradient>
				<polygon class="st7" points="147.9,77.4 45,168.7 -45.7,66.5 57.2,-24.8 				"/>
			</g>
		</g>
	</g>
	<polygon class="st8" points="61.7,16.9 68.3,23.8 68.3,16.3 61.7,8.8 	"/>
	<polygon class="st8" points="61.7,26.3 68.3,33.2 68.3,25.7 61.7,18.3 	"/>
	<polygon class="st8" points="68.4,14.6 68.4,7.7 61.7,0.2 61.7,7.1 	"/>
	<polygon class="st9" points="61.6,7.7 61.6,8.4 61.7,8.6 61.7,7.9 	"/>
</g>
<g>
	
		<linearGradient id="SVGID_16_" gradientUnits="userSpaceOnUse" x1="-75.0169" y1="259.616" x2="-74.0165" y2="259.616" gradientTransform="matrix(0 33.5896 33.5896 0 -8593.5518 2557.5181)">
		<stop  offset="0" style="stop-color:#FFE985"/>
		<stop  offset="1" style="stop-color:#D6A221"/>
	</linearGradient>
	<path class="st10" d="M126.9,49.8c1.5,0,2.5,0.7,3,2.2h3.4c-0.1-0.7-0.4-1.4-0.9-2.1c-1.3-2-3.1-3-5.5-3c-1.8,0-3.4,0.6-4.7,1.9
		c-1.3,1.3-1.9,2.8-1.9,4.6c0,1.8,0.6,3.4,1.9,4.7c1.3,1.3,2.9,1.9,4.7,1.9c1.5,0,2.9-0.5,4-1.4c1.2-0.9,2-2.1,2.3-3.6H130
		c-0.6,1.4-1.7,2.1-3,2.1c-1,0-1.8-0.4-2.5-1.1c-0.6-0.7-0.9-1.6-0.9-2.6c0-1,0.3-1.9,0.9-2.6C125.1,50.1,125.9,49.8,126.9,49.8z"/>
	<g>
		
			<linearGradient id="SVGID_17_" gradientUnits="userSpaceOnUse" x1="-75.0168" y1="259.7027" x2="-74.0178" y2="259.7027" gradientTransform="matrix(0 33.5896 33.5896 0 -8579.3018 2557.5181)">
			<stop  offset="0" style="stop-color:#FFE985"/>
			<stop  offset="1" style="stop-color:#D6A221"/>
		</linearGradient>
		<path class="st11" d="M141.9,41.4L141.9,41.4c0,0.1,0,0.1,0,0.1h1.5c0-0.3,0-0.4,0.1-0.5c0.1-0.2,0.2-0.2,0.5-0.2
			c0.3,0,0.5,0.2,0.5,0.5c0,0.2-0.1,0.4-0.2,0.5c-0.1,0.1-0.1,0.2-0.2,0.3l-0.3,0.3c-0.1,0.1-0.2,0.2-0.3,0.3
			c-0.1,0.1-0.2,0.2-0.2,0.3c-0.2,0.2-0.2,0.5-0.2,0.7h1.4c0-0.2,0.1-0.4,0.3-0.6c0.1-0.1,0.1-0.2,0.3-0.3l0.3-0.3
			c0.1-0.1,0.2-0.2,0.3-0.3c0.1-0.1,0.2-0.2,0.2-0.3c0.2-0.3,0.2-0.5,0.2-0.8c0-0.3-0.1-0.5-0.2-0.8c-0.3-0.7-0.9-1-1.8-1
			c-0.6,0-1.1,0.2-1.5,0.6C142.1,40.3,141.9,40.8,141.9,41.4z"/>
		
			<linearGradient id="SVGID_18_" gradientUnits="userSpaceOnUse" x1="-75.0169" y1="259.6159" x2="-74.0165" y2="259.6159" gradientTransform="matrix(0 33.5896 33.5896 0 -8579.3018 2557.5181)">
			<stop  offset="0" style="stop-color:#FFE985"/>
			<stop  offset="1" style="stop-color:#D6A221"/>
		</linearGradient>
		<path class="st12" d="M141.1,46.9c-2.2,0-4,0.9-5.3,2.6c-0.4,0.5-0.6,1-0.8,1.4c-0.3,0.8-0.5,1.7-0.5,2.7c0,1.8,0.7,3.3,2,4.5
			c1.3,1.2,2.8,1.8,4.6,1.8c1.9,0,3.4-0.6,4.7-1.9c1.3-1.3,1.9-2.8,1.9-4.7c0-1.8-0.6-3.4-1.9-4.6C144.5,47.6,142.9,46.9,141.1,46.9
			z M143.6,56c-0.7,0.8-1.5,1.1-2.5,1.1c-1,0-1.9-0.4-2.5-1.1c-0.6-0.7-1-1.6-1-2.6c0-1,0.3-1.9,0.9-2.6c0.7-0.7,1.5-1.1,2.5-1.1
			c1,0,1.8,0.4,2.5,1.1c0.6,0.7,0.9,1.6,0.9,2.6C144.5,54.5,144.2,55.3,143.6,56z"/>
		
			<linearGradient id="SVGID_19_" gradientUnits="userSpaceOnUse" x1="-75.017" y1="259.6158" x2="-74.0162" y2="259.6158" gradientTransform="matrix(0 33.5896 33.5896 0 -8579.3018 2557.5181)">
			<stop  offset="0" style="stop-color:#FFE985"/>
			<stop  offset="1" style="stop-color:#D6A221"/>
		</linearGradient>
		<polygon class="st13" points="141.1,45.1 141.9,46.1 144.6,46.1 142.1,43.2 140.2,43.2 137.6,46.1 140.3,46.1 		"/>
	</g>
	
		<linearGradient id="SVGID_20_" gradientUnits="userSpaceOnUse" x1="-75.0169" y1="259.6166" x2="-74.0164" y2="259.6166" gradientTransform="matrix(0 33.5896 33.5896 0 -8565.6455 2557.5181)">
		<stop  offset="0" style="stop-color:#FFE985"/>
		<stop  offset="1" style="stop-color:#D6A221"/>
	</linearGradient>
	<polygon class="st14" points="157,47.2 157.1,55 157.1,55.1 152.2,47.2 149.5,47.2 149.5,59.8 152.5,59.8 152.5,52.1 152.5,52.1 
		157.3,59.8 160.1,59.8 160.1,47.2 	"/>
	
		<linearGradient id="SVGID_21_" gradientUnits="userSpaceOnUse" x1="-75.0169" y1="259.6165" x2="-74.0165" y2="259.6165" gradientTransform="matrix(0 33.5896 33.5896 0 -8551.8955 2557.5181)">
		<stop  offset="0" style="stop-color:#FFE985"/>
		<stop  offset="1" style="stop-color:#D6A221"/>
	</linearGradient>
	<path class="st15" d="M167.7,52.6v2.6h3.8c-0.2,0.7-0.6,1.2-1.1,1.5c-0.5,0.3-1.2,0.5-1.9,0.5c-1,0-1.9-0.4-2.5-1.1
		c-0.6-0.7-0.9-1.6-0.9-2.7c0-1,0.3-1.9,0.9-2.6c0.7-0.7,1.5-1.1,2.5-1.1c1.2,0,2.2,0.5,2.8,1.6h3.6c-0.4-1.3-1.2-2.4-2.4-3.2
		c-1.2-0.8-2.5-1.2-3.9-1.2c-1.9,0-3.5,0.6-4.7,1.8c-1.3,1.2-2,2.8-2,4.7c0,1.9,0.7,3.4,2,4.7c1.3,1.3,2.9,1.9,4.7,1.9
		c1.9,0,3.5-0.6,4.8-1.9c1.3-1.3,1.9-2.9,1.9-4.8v-0.3c0-0.1,0-0.2,0-0.3H167.7z"/>
	
		<linearGradient id="SVGID_22_" gradientUnits="userSpaceOnUse" x1="-75.0169" y1="259.6165" x2="-74.0164" y2="259.6165" gradientTransform="matrix(0 33.5896 33.5896 0 -8535.1768 2557.5181)">
		<stop  offset="0" style="stop-color:#FFE985"/>
		<stop  offset="1" style="stop-color:#D6A221"/>
	</linearGradient>
	<polygon class="st16" points="181.2,47.2 181.2,50 183.6,50 183.6,59.8 186.9,59.8 186.9,50 189.3,50 189.3,47.2 	"/>
	
		<linearGradient id="SVGID_23_" gradientUnits="userSpaceOnUse" x1="-75.0169" y1="259.6163" x2="-74.0164" y2="259.6163" gradientTransform="matrix(0 33.5896 33.5896 0 -8524.5303 2557.5181)">
		<stop  offset="0" style="stop-color:#FFE985"/>
		<stop  offset="1" style="stop-color:#D6A221"/>
	</linearGradient>
	<polygon class="st17" points="197.9,47.2 197.9,51.9 193.8,51.9 193.8,47.2 190.6,47.2 190.6,59.8 193.8,59.8 193.8,54.7 
		197.9,54.7 197.9,59.8 201.2,59.8 201.2,47.2 	"/>
	<g>
		
			<linearGradient id="SVGID_24_" gradientUnits="userSpaceOnUse" x1="-75.0166" y1="259.6163" x2="-74.0167" y2="259.6163" gradientTransform="matrix(0 33.5896 33.5896 0 -8510.8955 2557.5181)">
			<stop  offset="0" style="stop-color:#FFE985"/>
			<stop  offset="1" style="stop-color:#D6A221"/>
		</linearGradient>
		<polygon class="st18" points="208.7,46.1 209.5,45.1 210.3,46.1 213,46.1 210.5,43.2 208.6,43.2 206,46.1 		"/>
		
			<linearGradient id="SVGID_25_" gradientUnits="userSpaceOnUse" x1="-75.0164" y1="259.6164" x2="-74.017" y2="259.6164" gradientTransform="matrix(0 33.5896 33.5896 0 -8510.8955 2557.5181)">
			<stop  offset="0" style="stop-color:#FFE985"/>
			<stop  offset="1" style="stop-color:#D6A221"/>
		</linearGradient>
		<path class="st19" d="M209.5,46.9c-2.2,0-4,0.9-5.3,2.6c-0.4,0.5-0.6,1-0.8,1.4c-0.3,0.8-0.5,1.7-0.5,2.7c0,1.8,0.7,3.3,2,4.5
			c1.3,1.2,2.8,1.8,4.6,1.8c1.9,0,3.4-0.6,4.7-1.9c1.3-1.3,1.9-2.8,1.9-4.7c0-1.8-0.6-3.4-1.9-4.6C212.9,47.6,211.4,46.9,209.5,46.9
			z M212,56c-0.7,0.8-1.5,1.1-2.5,1.1c-1,0-1.9-0.4-2.5-1.1c-0.6-0.7-1-1.6-1-2.6c0-1,0.3-1.9,0.9-2.6c0.7-0.7,1.5-1.1,2.5-1.1
			c1,0,1.8,0.4,2.5,1.1c0.6,0.7,0.9,1.6,0.9,2.6C212.9,54.5,212.6,55.3,212,56z"/>
	</g>
	
		<linearGradient id="SVGID_26_" gradientUnits="userSpaceOnUse" x1="-75.0169" y1="259.6164" x2="-74.0164" y2="259.6164" gradientTransform="matrix(0 33.5896 33.5896 0 -8497.2178 2557.5181)">
		<stop  offset="0" style="stop-color:#FFE985"/>
		<stop  offset="1" style="stop-color:#D6A221"/>
	</linearGradient>
	<polygon class="st20" points="225.4,47.2 225.6,55 225.5,55.1 220.7,47.2 217.9,47.2 217.9,59.8 221,59.8 220.9,52.1 220.9,52.1 
		225.7,59.8 228.5,59.8 228.5,47.2 	"/>
	
		<linearGradient id="SVGID_27_" gradientUnits="userSpaceOnUse" x1="-75.0169" y1="259.6165" x2="-74.0165" y2="259.6165" gradientTransform="matrix(0 33.5896 33.5896 0 -8483.4678 2557.5181)">
		<stop  offset="0" style="stop-color:#FFE985"/>
		<stop  offset="1" style="stop-color:#D6A221"/>
	</linearGradient>
	<path class="st21" d="M236.2,52.6v2.6h3.8c-0.2,0.7-0.6,1.2-1.1,1.5c-0.5,0.3-1.2,0.5-1.9,0.5c-1,0-1.9-0.4-2.5-1.1
		c-0.6-0.7-0.9-1.6-0.9-2.7c0-1,0.3-1.9,0.9-2.6c0.7-0.7,1.5-1.1,2.5-1.1c1.2,0,2.2,0.5,2.8,1.6h3.6c-0.4-1.3-1.2-2.4-2.4-3.2
		c-1.2-0.8-2.5-1.2-3.9-1.2c-1.9,0-3.5,0.6-4.8,1.8c-1.3,1.2-2,2.8-2,4.7c0,1.9,0.6,3.4,2,4.7c1.3,1.3,2.9,1.9,4.7,1.9
		c1.9,0,3.5-0.6,4.8-1.9c1.3-1.3,1.9-2.9,1.9-4.8v-0.3c0-0.1,0-0.2,0-0.3H236.2z"/>
	
		<linearGradient id="SVGID_28_" gradientUnits="userSpaceOnUse" x1="-75.0169" y1="259.6164" x2="-74.0164" y2="259.6164" gradientTransform="matrix(0 33.5896 33.5896 0 -8466.749 2557.5181)">
		<stop  offset="0" style="stop-color:#FFE985"/>
		<stop  offset="1" style="stop-color:#D6A221"/>
	</linearGradient>
	<polygon class="st22" points="249.6,47.2 249.6,50 252.1,50 252.1,59.8 255.3,59.8 255.3,50 257.7,50 257.7,47.2 	"/>
	<g>
		<defs>
			<rect id="SVGID_29_" x="259" y="47.2" width="3.2" height="12.6"/>
		</defs>
		<linearGradient id="SVGID_30_" gradientUnits="userSpaceOnUse" x1="256.6203" y1="53.4614" x2="265.2005" y2="53.4614">
			<stop  offset="0" style="stop-color:#FFE985"/>
			<stop  offset="1" style="stop-color:#D6A221"/>
		</linearGradient>
		<use xlink:href="#SVGID_29_"  style="overflow:visible;fill:url(#SVGID_30_);"/>
		<clipPath id="SVGID_31_">
			<use xlink:href="#SVGID_29_"  style="overflow:visible;"/>
		</clipPath>
		
			<linearGradient id="SVGID_32_" gradientUnits="userSpaceOnUse" x1="-75.0169" y1="259.6166" x2="-74.0163" y2="259.6166" gradientTransform="matrix(0 33.5896 33.5896 0 -8459.7803 2557.5181)">
			<stop  offset="0" style="stop-color:#FFE985"/>
			<stop  offset="1" style="stop-color:#D6A221"/>
		</linearGradient>
		<rect x="259" y="47.2" class="st23" width="3.2" height="12.6"/>
	</g>
	
		<linearGradient id="SVGID_33_" gradientUnits="userSpaceOnUse" x1="-75.0169" y1="259.6163" x2="-74.0164" y2="259.6163" gradientTransform="matrix(0 33.5896 33.5896 0 -8450.583 2557.5181)">
		<stop  offset="0" style="stop-color:#FFE985"/>
		<stop  offset="1" style="stop-color:#D6A221"/>
	</linearGradient>
	<polygon class="st24" points="272,47.2 272.2,55 272.2,55.1 267.3,47.2 264.5,47.2 264.5,59.8 267.6,59.8 267.5,52.1 267.5,52.1 
		272.3,59.8 275.1,59.8 275.1,47.2 	"/>
</g>
<g>
	<defs>
		<path id="SVGID_34_" d="M126.4,84h2.6c0.7,0,1.2,0.1,1.6,0.3c0.5,0.3,0.7,0.7,0.7,1.4c0,0.7-0.2,1.2-0.7,1.5
			c-0.4,0.3-1,0.4-1.7,0.4h-2.5V84z M126.4,76.6h2c0.6,0,1.1,0.1,1.4,0.3c0.4,0.2,0.6,0.6,0.6,1.2c0,1.1-0.7,1.6-2,1.6h-1.9V76.6z
			 M121.5,72.1v19.9h7.3c0.3,0,0.6,0,0.9,0c0.6,0,1.2-0.1,1.6-0.2c1.1-0.2,2.1-0.7,3.1-1.5c1.2-1,1.8-2.5,1.8-4.3
			c0-2.3-1.1-3.9-3.3-4.6c1.5-0.9,2.3-2.2,2.3-4c0-1.3-0.4-2.4-1.2-3.3c-0.8-0.8-1.7-1.4-2.9-1.7c-0.5-0.1-1-0.2-1.7-0.2
			c-0.4,0-1,0-1.8,0H121.5z"/>
	</defs>
	<clipPath id="SVGID_35_">
		<use xlink:href="#SVGID_34_"  style="overflow:visible;"/>
	</clipPath>
	
		<linearGradient id="SVGID_36_" gradientUnits="userSpaceOnUse" x1="-75.0215" y1="259.6099" x2="-74.0212" y2="259.6099" gradientTransform="matrix(0 46.7391 46.7391 0 -12005.0713 3568.2537)">
		<stop  offset="0" style="stop-color:#71CDDD"/>
		<stop  offset="0.6311" style="stop-color:#1072BA"/>
		<stop  offset="1" style="stop-color:#272361"/>
	</linearGradient>
	<rect x="121.5" y="72.1" class="st25" width="14.7" height="19.9"/>
</g>
<g>
	<defs>
		<path id="SVGID_37_" d="M147.3,78.3L147.3,78.3l2.1,6.8h-4.2L147.3,78.3z M145.4,72.1l-8,19.9h5.5l1.1-2.9h6.9l1,2.9h5.5
			l-7.9-19.9H145.4z M146,65.9l-4.2,4.5h4.4l1.2-1.6l1.2,1.6h4.3l-4-4.5H146z M150.5,65.1l1.3,2.6l6.6-2.9l-1.4-3.2L150.5,65.1z"/>
	</defs>
	<clipPath id="SVGID_38_">
		<use xlink:href="#SVGID_37_"  style="overflow:visible;"/>
	</clipPath>
	
		<linearGradient id="SVGID_39_" gradientUnits="userSpaceOnUse" x1="-75.0213" y1="259.6096" x2="-74.0213" y2="259.6096" gradientTransform="matrix(0 46.7391 46.7391 0 -11986.0176 3568.2537)">
		<stop  offset="0" style="stop-color:#71CDDD"/>
		<stop  offset="0.6311" style="stop-color:#1072BA"/>
		<stop  offset="1" style="stop-color:#272361"/>
	</linearGradient>
	<rect x="137.4" y="61.6" class="st26" width="21" height="30.4"/>
</g>
<g>
	<defs>
		<polygon id="SVGID_40_" points="157.8,72.1 157.8,76.6 161.7,76.6 161.7,92.1 166.8,92.1 166.8,76.6 170.7,76.6 170.7,72.1 		"/>
	</defs>
	<clipPath id="SVGID_41_">
		<use xlink:href="#SVGID_40_"  style="overflow:visible;"/>
	</clipPath>
	
		<linearGradient id="SVGID_42_" gradientUnits="userSpaceOnUse" x1="-75.0215" y1="259.6101" x2="-74.0212" y2="259.6101" gradientTransform="matrix(0 46.7391 46.7391 0 -11969.6738 3568.2537)">
		<stop  offset="0" style="stop-color:#71CDDD"/>
		<stop  offset="0.6311" style="stop-color:#1072BA"/>
		<stop  offset="1" style="stop-color:#272361"/>
	</linearGradient>
	<rect x="157.8" y="72.1" class="st27" width="12.9" height="19.9"/>
</g>
<g>
	<defs>
		<path id="SVGID_43_" d="M187,76.6h2.2c1.6,0,2.9,0.5,3.7,1.6c0.8,1,1.2,2.3,1.2,3.9c0,1.7-0.4,3-1.1,3.9c-0.8,1-2.1,1.5-3.7,1.5
			H187v-3.5h2.9v-4.5H187V76.6z M181.9,72.1v7.5h-1.8v4.5h1.8v8h7.5c3,0,5.4-0.9,7.2-2.8c1.7-1.8,2.6-4.2,2.6-7.3
			c0-2.4-0.6-4.5-1.8-6.2c-1.1-1.4-2.3-2.5-3.9-3c-0.7-0.3-1.4-0.4-2.3-0.5c-0.7-0.1-1.6-0.2-2.6-0.2H181.9z"/>
	</defs>
	<clipPath id="SVGID_44_">
		<use xlink:href="#SVGID_43_"  style="overflow:visible;"/>
	</clipPath>
	
		<linearGradient id="SVGID_45_" gradientUnits="userSpaceOnUse" x1="-75.0215" y1="259.6096" x2="-74.0212" y2="259.6096" gradientTransform="matrix(0 46.7391 46.7391 0 -11944.3213 3568.2537)">
		<stop  offset="0" style="stop-color:#71CDDD"/>
		<stop  offset="0.6311" style="stop-color:#1072BA"/>
		<stop  offset="1" style="stop-color:#272361"/>
	</linearGradient>
	<rect x="180.1" y="72.1" class="st28" width="19" height="19.9"/>
</g>
<g>
	<defs>
		<path id="SVGID_46_" d="M209.4,98.5h4.3v-4.1h-4.3V98.5z M207.6,86.2c-1-1.1-1.5-2.5-1.5-4.2c0-1.6,0.5-3,1.5-4.1
			c1-1.2,2.3-1.7,3.9-1.7c1.6,0,2.9,0.6,3.9,1.8c1,1.1,1.5,2.5,1.5,4.1c0,1.6-0.5,2.9-1.5,4.1c-1,1.2-2.3,1.8-3.9,1.8
			C210,88,208.6,87.4,207.6,86.2 M203.1,75.9c-0.6,0.8-1,1.5-1.3,2.2c-0.5,1.3-0.8,2.8-0.8,4.3c0,2.8,1,5.2,3.1,7.2
			c2,1.9,4.5,2.9,7.3,2.9c2.9,0,5.4-1,7.5-3c2.1-2,3.1-4.5,3.1-7.4c0-2.9-1-5.4-3.1-7.4c-2-2-4.5-3-7.4-3
			C208,71.8,205.1,73.1,203.1,75.9 M210.1,65.9l-4.2,4.5h4.4l1.2-1.6l1.2,1.6h4.3l-4-4.5H210.1z"/>
	</defs>
	<clipPath id="SVGID_47_">
		<use xlink:href="#SVGID_46_"  style="overflow:visible;"/>
	</clipPath>
	
		<linearGradient id="SVGID_48_" gradientUnits="userSpaceOnUse" x1="-75.0212" y1="259.6098" x2="-74.0215" y2="259.6098" gradientTransform="matrix(0 46.7391 46.7391 0 -11922.4238 3568.2537)">
		<stop  offset="0" style="stop-color:#71CDDD"/>
		<stop  offset="0.6311" style="stop-color:#1072BA"/>
		<stop  offset="1" style="stop-color:#272361"/>
	</linearGradient>
	<rect x="201" y="65.9" class="st29" width="21" height="32.6"/>
</g>
<g>
	<defs>
		<polygon id="SVGID_49_" points="236.7,72.1 236.9,84.6 236.9,84.7 229.2,72.1 224.8,72.1 224.8,92.1 229.6,92.1 229.5,80 
			229.6,79.9 237.1,92.1 241.6,92.1 241.6,72.1 		"/>
	</defs>
	<clipPath id="SVGID_50_">
		<use xlink:href="#SVGID_49_"  style="overflow:visible;"/>
	</clipPath>
	
		<linearGradient id="SVGID_51_" gradientUnits="userSpaceOnUse" x1="-75.0215" y1="259.6099" x2="-74.0212" y2="259.6099" gradientTransform="matrix(0 46.7391 46.7391 0 -11900.7676 3568.2537)">
		<stop  offset="0" style="stop-color:#71CDDD"/>
		<stop  offset="0.6311" style="stop-color:#1072BA"/>
		<stop  offset="1" style="stop-color:#272361"/>
	</linearGradient>
	<rect x="224.8" y="72.1" class="st30" width="16.8" height="19.9"/>
</g>
<g>
	<defs>
		<path id="SVGID_52_" d="M247.5,74.6c-2.1,2-3.1,4.4-3.1,7.4c0,2.9,1,5.4,3.1,7.4c2.1,2,4.5,3,7.5,3c3.1,0,5.6-1,7.6-3
			c2-2,3-4.6,3-7.6v-0.5c0-0.2,0-0.4,0-0.5h-11.8v4.1h5.9c-0.3,1.1-0.9,1.9-1.8,2.4c-0.8,0.5-1.8,0.8-3,0.8c-1.6,0-3-0.6-4-1.8
			c-1-1.1-1.5-2.5-1.5-4.2c0-1.6,0.5-3,1.5-4.1c1-1.1,2.3-1.7,3.9-1.7c2,0,3.4,0.9,4.4,2.6h5.7c-0.6-2.1-1.9-3.8-3.8-5.1
			c-1.9-1.3-3.9-1.9-6.1-1.9C252,71.8,249.5,72.7,247.5,74.6"/>
	</defs>
	<clipPath id="SVGID_53_">
		<use xlink:href="#SVGID_52_"  style="overflow:visible;"/>
	</clipPath>
	
		<linearGradient id="SVGID_54_" gradientUnits="userSpaceOnUse" x1="-75.0216" y1="259.6096" x2="-74.0213" y2="259.6096" gradientTransform="matrix(0 46.7391 46.7391 0 -11878.9873 3568.2537)">
		<stop  offset="0" style="stop-color:#71CDDD"/>
		<stop  offset="0.6311" style="stop-color:#1072BA"/>
		<stop  offset="1" style="stop-color:#272361"/>
	</linearGradient>
	<rect x="244.3" y="71.8" class="st31" width="21.2" height="20.7"/>
</g>
<g>
	<defs>
		<path id="SVGID_55_" d="M277.9,73.3c-1.5,1.1-2.2,2.6-2.2,4.3c0,1.4,0.5,2.6,1.5,3.6c0.4,0.4,0.9,0.8,1.6,1.2
			c0.5,0.3,1.1,0.6,1.9,0.9l2.2,0.9l0.4,0.2c0.3,0.1,0.5,0.3,0.7,0.4c0.4,0.4,0.7,0.8,0.7,1.4c0,1.3-0.6,1.9-1.9,1.9
			c-0.7,0-1.2-0.3-1.6-0.9c-0.3-0.5-0.5-1.1-0.5-1.9h-5.1v0.6c0,2.1,0.7,3.6,2.1,4.8c1.3,1.1,3,1.6,5.1,1.6c2.1,0,3.7-0.5,4.9-1.5
			c1.3-1.1,2-2.6,2-4.6c0-1.4-0.4-2.6-1.3-3.6c-0.4-0.4-0.9-0.8-1.5-1.2c-0.5-0.3-1.1-0.6-1.8-1l-2.1-0.9c-1-0.5-1.6-0.9-1.8-1.3
			c-0.1-0.2-0.2-0.5-0.2-0.8c0-1,0.6-1.6,1.7-1.6c1,0,1.6,0.6,1.8,1.9h5c-0.1-1.6-0.5-2.9-1.3-3.9c-0.6-0.7-1.4-1.3-2.4-1.7
			c-0.9-0.4-1.9-0.6-2.9-0.6C280.8,71.8,279.2,72.3,277.9,73.3"/>
	</defs>
	<clipPath id="SVGID_56_">
		<use xlink:href="#SVGID_55_"  style="overflow:visible;"/>
	</clipPath>
	
		<linearGradient id="SVGID_57_" gradientUnits="userSpaceOnUse" x1="-75.0215" y1="259.6099" x2="-74.0215" y2="259.6099" gradientTransform="matrix(0 46.7391 46.7391 0 -11851.5176 3568.2537)">
		<stop  offset="0" style="stop-color:#71CDDD"/>
		<stop  offset="0.6311" style="stop-color:#1072BA"/>
		<stop  offset="1" style="stop-color:#272361"/>
	</linearGradient>
	<rect x="275.3" y="71.8" class="st32" width="14.1" height="20.7"/>
</g>
<g>
	<defs>
		<path id="SVGID_58_" d="M300.3,78.3L300.3,78.3l2.1,6.8h-4.2L300.3,78.3z M298.3,72.1l-8,19.9h5.5l1.1-2.9h6.9l1,2.9h5.5
			l-7.9-19.9H298.3z M298.3,64.9c-0.7,0.6-1,1.4-1,2.4v0.1c0,0,0,0.1,0,0.1h2.4c0-0.4,0.1-0.7,0.2-0.9c0.1-0.3,0.4-0.4,0.8-0.4
			c0.5,0,0.8,0.3,0.8,0.8c0,0.3-0.1,0.6-0.4,0.9c-0.1,0.1-0.2,0.3-0.4,0.4l-0.4,0.4c-0.2,0.2-0.3,0.3-0.4,0.4
			c-0.1,0.2-0.3,0.3-0.4,0.5c-0.2,0.4-0.4,0.8-0.4,1.2h2.3c0-0.3,0.2-0.6,0.4-0.9c0.1-0.1,0.2-0.3,0.4-0.4l0.4-0.4
			c0.2-0.2,0.3-0.3,0.4-0.5c0.1-0.2,0.3-0.3,0.4-0.5c0.3-0.4,0.4-0.9,0.4-1.3c0-0.4-0.1-0.8-0.3-1.2c-0.6-1.1-1.5-1.6-2.8-1.6
			C299.8,64,299,64.3,298.3,64.9"/>
	</defs>
	<clipPath id="SVGID_59_">
		<use xlink:href="#SVGID_58_"  style="overflow:visible;"/>
	</clipPath>
	
		<linearGradient id="SVGID_60_" gradientUnits="userSpaceOnUse" x1="-75.0213" y1="259.6101" x2="-74.0213" y2="259.6101" gradientTransform="matrix(0 46.7391 46.7391 0 -11833.6426 3568.2537)">
		<stop  offset="0" style="stop-color:#71CDDD"/>
		<stop  offset="0.6311" style="stop-color:#1072BA"/>
		<stop  offset="1" style="stop-color:#272361"/>
	</linearGradient>
	<rect x="290.3" y="64" class="st33" width="19.9" height="28.1"/>
</g>
<g>
	<defs>
		<polygon id="SVGID_61_" points="324.2,72.1 324.4,84.6 324.4,84.7 316.7,72.1 312.3,72.1 312.3,92.1 317.2,92.1 317,80 
			317.1,79.9 324.7,92.1 329.1,92.1 329.1,72.1 		"/>
	</defs>
	<clipPath id="SVGID_62_">
		<use xlink:href="#SVGID_61_"  style="overflow:visible;"/>
	</clipPath>
	
		<linearGradient id="SVGID_63_" gradientUnits="userSpaceOnUse" x1="-75.0215" y1="259.61" x2="-74.0212" y2="259.61" gradientTransform="matrix(0 46.7391 46.7391 0 -11813.2373 3568.2537)">
		<stop  offset="0" style="stop-color:#71CDDD"/>
		<stop  offset="0.6311" style="stop-color:#1072BA"/>
		<stop  offset="1" style="stop-color:#272361"/>
	</linearGradient>
	<rect x="312.3" y="72.1" class="st34" width="16.8" height="19.9"/>
</g>
</svg>
